<?xml version="1.0" encoding="utf-8"?>
<svg xmlns="http://www.w3.org/2000/svg" data-name="Layer 2" id="Layer_2" version="1.1" viewBox="0 0 380.74 68.94">
  <defs>
    <style>
      .cls-1 {
        fill: #8a8c8e;
      }

      .cls-1, .cls-2, .cls-3, .cls-4 {
        stroke-width: 0px;
      }

      .cls-2 {
        fill: #016394;
      }

      .cls-3 {
        fill: url(#radial-gradient);
      }

      .cls-4 {
        fill: #eb4e39;
      }
    </style>
    <radialGradient cx="42.31" cy="1574.48" fx="42.31" fy="1574.48" gradientTransform="translate(0 -1545.95)" gradientUnits="userSpaceOnUse" id="radial-gradient" r="24.19">
      <stop offset="0" stop-color="#fff"/>
      <stop offset=".28" stop-color="#8ec0da"/>
      <stop offset=".47" stop-color="#4899c4"/>
      <stop offset=".58" stop-color="#2a82b0"/>
      <stop offset=".76" stop-color="#046b9b"/>
      <stop offset=".85" stop-color="#016394"/>
    </radialGradient>
  </defs>
  <g data-name="Layer 1" id="Layer_1-2">
    <g>
      <g>
        <path class="cls-1" d="M68.82,53.69l-2.31-1.16c-.47-.26-.94-.51-1.41-.81,4.15-4.79,6.38-10.83,6.38-17.25,0-14.64-11.9-26.54-26.54-26.54-3.3,0-6.51.6-9.5,1.76v4.79c2.95-1.41,6.21-2.14,9.5-2.14,12.2,0,22.09,9.93,22.09,22.09,0,5.22-1.8,10.19-5.09,14.13-.3-.47-.6-.94-.86-1.46l-1.16-2.31c-.6-1.2-2.44-.77-2.44.56v9.42c0,.68.56,1.28,1.28,1.28h9.42c1.41.04,1.84-1.76.64-2.35Z"/>
        <path class="cls-3" d="M44.89,16.83c-3.47,0-6.72,1.03-9.46,2.74v3.9c0,2.44-1.93,4.32-4.37,4.32-.81,0-1.63-.21-2.27-.64-1.03,2.23-1.63,4.75-1.63,7.36,0,9.76,7.92,17.68,17.72,17.68,3.51,0,6.81-1.03,9.59-2.83v-3.98c0-2.44,1.93-4.32,4.37-4.32.81,0,1.58.21,2.27.64.98-2.18,1.54-4.62,1.54-7.19,0-9.76-7.96-17.68-17.77-17.68Z"/>
        <path class="cls-2" d="M44.98,56.56c-12.2,0-22.09-9.93-22.09-22.09,0-.47,0-.94.04-1.41,0-.13,0-.26.04-.39.04-.39.09-.73.13-1.11,0-.09.04-.17.04-.3.43-2.95,1.46-5.74,2.95-8.22v-.04c.56-.94,1.24-1.84,1.93-2.7.3.47.6.94.86,1.41l1.16,2.31c.6,1.2,2.44.77,2.44-.56v-9.42c0-.68-.56-1.28-1.28-1.28h-9.42c-1.37,0-1.8,1.84-.56,2.44l2.31,1.16c.51.26.98.51,1.41.86-1.5,1.76-2.78,3.68-3.77,5.78v.04c-.51,1.11-.98,2.23-1.37,3.42-.04.13-.09.26-.13.43-.13.47-.26.94-.39,1.41-.04.13-.04.26-.09.34-.13.56-.26,1.16-.34,1.71-.04.13-.04.3-.04.43-.09.47-.13.9-.17,1.37,0,.17-.04.34-.04.51-.04.6-.09,1.2-.09,1.8,0,14.64,11.9,26.54,26.54,26.54,3.34,0,6.55-.64,9.5-1.76v-4.88c-2.95,1.37-6.21,2.18-9.59,2.18Z"/>
      </g>
      <g>
        <path class="cls-4" d="M222.45,29.97c0-6.29-4.37-9.97-9.33-9.97s-6.42,3.55-6.42,3.55c0,0-1.46-3.55-6.42-3.55s-9.33,3.68-9.33,9.97v19.01h6.34v-18.28c0-2.35.39-5.14,3.12-5.14s3.12,2.78,3.12,5.14v8.86h6.34v-8.86c0-2.35.39-5.14,3.12-5.14s3.12,2.78,3.12,5.14v18.28h6.38v-7.28l-.04-11.73h0Z"/>
        <path class="cls-4" d="M277.16,23.64c-1.33-.47-2.01-.94-2.65-1.33-.6-.34-.81-.77-.81-1.16v-1.16h-6.16l.04,1.63c0,3.51,1.8,4.28,5.95,6.51l2.78,1.46c1.67.81,2.48,2.4,2.48,4.54v4.07c0,3.25-1.67,5.22-4.41,5.22-2.31,0-3.85-1.46-4.28-3.9l-6.16-.13v.3c0,1.93.56,3.85,1.71,5.39,1.93,2.57,5.09,3.85,8.86,3.85,5.31,0,10.62-3.42,10.62-10.02v-5.56c0-5.31-2.61-7.66-7.96-9.72Z"/>
        <path class="cls-4" d="M253.83,30.4c-.04-3.9-.21-4.79-.81-5.69-.51-.64-1.28-1.16-2.27-1.67l-1.54-.73c-.51-.26-.81-.73-.81-1.28v-.98h-6.25v1.67c0,1.76.21,2.95,1.54,3.68,2.74,1.46,2.61,1.41,2.74,1.46.56.26.94.81.94,1.41v1.93c-4.54.9-7.96,4.07-7.96,9.25,0,6.16,4.88,9.55,10.7,9.55s10.7-3.38,10.7-9.55c0-4.75-2.95-7.88-6.98-9.03ZM250.11,43.5c-2.65,0-4.37-1.46-4.37-4.02s1.71-4.02,4.37-4.02,4.37,1.41,4.37,4.02-1.71,4.02-4.37,4.02Z"/>
        <path class="cls-4" d="M351.52,20c-5.31,0-10.7,3.42-10.7,10.02v18.96h6.34v-18.24c0-3.25,1.67-5.22,4.37-5.22s4.37,1.97,4.37,5.22v11.6c0,3.81.04,6.64.04,6.64h6.29v-18.96c0-6.55-5.39-10.02-10.7-10.02Z"/>
        <path class="cls-4" d="M158.63,29.46h0c-.3-6.21-5.56-9.46-10.7-9.46s-10.7,3.42-10.7,10.02v.86h6.29v-.13c0-3.25,1.67-5.22,4.37-5.22s4.37,1.97,4.37,5.22v7.53c0,3.25-1.67,5.22-4.37,5.22s-4.37-1.97-4.37-5.22v-.39h-6.34v1.11c0,6.59,5.39,10.02,10.7,10.02s10.7-3.42,10.7-10.02v-1.11h0v-7.88h0l.04-.56h0Z"/>
        <path class="cls-4" d="M176.01,39.73c4.58,0,9.5-3.64,9.5-9.72s-4.92-10.02-10.74-10.02-10.7,3.94-10.7,9.8v7.88c0,7.36,2.78,11.34,10.06,11.34h9.12v-5.27h-8.9c-2.87,0-4.02-1.84-4.02-5.39v-.73c1.54,1.37,3.6,2.1,5.69,2.1ZM174.77,25.52c2.4,0,4.32,1.93,4.32,4.32s-1.93,4.32-4.32,4.32-4.32-1.93-4.32-4.32,1.93-4.32,4.32-4.32Z"/>
        <path class="cls-4" d="M302.33,29.29c-2.1,0-4.15.68-5.65,2.1v-.73c0-3.55,1.16-5.39,4.02-5.39h8.9v-5.27h-9.16c-7.28,0-10.06,3.98-10.06,11.34v7.88c0,5.86,4.88,9.8,10.7,9.8s10.74-3.98,10.74-10.02c0-6.08-4.92-9.72-9.5-9.72ZM301.09,43.46c-2.4,0-4.32-1.93-4.32-4.32s1.93-4.32,4.32-4.32,4.32,1.93,4.32,4.32c0,2.4-1.93,4.32-4.32,4.32Z"/>
        <path class="cls-4" d="M122.58,29.93c-2.14,0-4.15.51-5.52,2.01v-.81c0-3.64.94-5.78,4.07-5.78h8.39v-5.35h-8.69c-7.15,0-10.02,3.85-10.15,10.87v18.11h6.38v-6.72c0-.43.04-2.65.04-2.65,0-2.4,1.97-4.45,4.67-4.45s4.11,2.1,4.11,4.41c0,0,.04,2.35.04,2.74v6.72h6.38v-9.5c0-6.21-4.58-9.59-9.72-9.59Z"/>
        <path class="cls-4" d="M326.6,26.63v-6.64h-6.08v15.84l6.08-1.71v-2.01c1.84.68,3.17,2.23,3.17,4.32v1.8c0,3.25-1.67,5.22-4.41,5.22-2.31,0-3.85-1.46-4.28-3.9l-6.16,1.76c1.11,5.01,5.22,7.62,10.57,7.62s10.62-3.42,10.62-10.02v-3.21c0-4.58-2.7-8.48-9.5-9.08"/>
        <path class="cls-4" d="M96.34,26.63v-6.64h-6.08v15.84l6.08-1.71v-2.01c1.84.68,3.17,2.23,3.17,4.32v1.84c0,3.25-1.67,5.22-4.41,5.22-2.31,0-3.85-1.46-4.28-3.9l-6.16,1.76c1.11,5.01,5.22,7.62,10.57,7.62s10.62-3.42,10.62-10.02v-3.25c0-4.58-2.7-8.48-9.5-9.08"/>
      </g>
    </g>
  </g>
</svg>