<svg viewBox="0 0 211 28" xmlns="http://www.w3.org/2000/svg">
    <g>
        <path d="M204.344 5.05078H201.68C198.004 5.05078 195.023 8.03588 195.023 11.7163V23.3786H199.13V11.9001C199.13 10.0028 200.668 8.46303 202.563 8.46303H203.456C205.35 8.46303 206.888 10.0028 206.888 11.9001V23.3786H210.995V11.7163C210.995 8.03588 208.014 5.05078 204.339 5.05078H204.344Z" />
        <path d="M114.661 13.882C114.661 7.9863 108.431 7.33067 108.431 7.33067C107.597 7.2661 106.997 7.03762 106.635 6.65517C106.268 6.27272 106.085 5.54755 106.085 5.0459H102.23C102.23 6.6651 102.632 7.95649 103.714 8.93497C104.671 9.79921 105.916 10.3257 107.444 10.574C109.264 10.8721 110.568 11.6469 110.568 13.8174" />
        <path d="M105.339 23.3778H108.003C111.678 23.3778 114.659 20.3927 114.659 16.7123V13.4888H110.552V16.5285C110.552 18.4259 109.015 19.9656 107.12 19.9656H106.227C104.332 19.9656 102.795 18.4259 102.795 16.5285V14.1146H98.6875V16.7073C98.6875 20.3878 101.669 23.3729 105.344 23.3729L105.339 23.3778Z" />
        <path d="M50.3783 5.06934H46.2812V8.51636H50.3783V5.06934Z" />
        <path d="M50.2221 8.50244H46.4375V16.0024H50.2221V8.50244Z" />
        <path d="M50.5773 6.57471H46.0784C42.4029 6.57471 39.4219 9.55981 39.4219 13.2403V16.7121C39.4219 20.3926 42.4029 23.3777 46.0784 23.3777H50.5773C54.2527 23.3777 57.2338 20.3926 57.2338 16.7121V13.2403C57.2338 9.55981 54.2527 6.57471 50.5773 6.57471ZM53.1268 15.833V16.5283C53.1268 18.4257 51.5891 19.9654 49.6944 19.9654H46.9663C45.0715 19.9654 43.5338 18.4257 43.5338 16.5283V13.4191C43.5338 11.5217 44.5854 9.98199 46.4802 9.98199H50.1308C52.0256 9.98199 53.1317 11.5217 53.1317 13.4191V15.833H53.1268Z" />
        <path d="M152.891 13.882C152.891 7.9863 146.661 7.33067 146.661 7.33067C145.828 7.2661 145.228 7.03762 144.866 6.65517C144.499 6.27272 144.315 5.54755 144.315 5.0459H140.461C140.461 6.6651 140.863 7.95649 141.944 8.93497C142.901 9.79921 144.146 10.3257 145.674 10.574C147.494 10.8721 148.799 11.6469 148.799 13.8174" />
        <path d="M143.57 23.3778H146.233C149.909 23.3778 152.89 20.3927 152.89 16.7123V13.4888H148.783V16.5285C148.783 18.4259 147.245 19.9656 145.35 19.9656H144.457C142.563 19.9656 141.025 18.4259 141.025 16.5285V14.1146H136.918V16.7073C136.918 20.3878 139.899 23.3729 143.574 23.3729L143.57 23.3778Z" />
        <path d="M86.6097 5.05078C82.9342 5.05078 79.9531 8.03588 79.9531 11.7163V23.3786H84.0601V11.9001C84.0601 10.0028 85.5978 8.46303 87.4926 8.46303L94.5608 8.4829V5.07065L86.6097 5.05078Z" />
        <path d="M90.0771 12.5547H82.5178L82.25 15.9669H89.1942C90.5384 15.9669 91.6296 17.0597 91.6296 18.4057V23.3825H95.7367V18.2269C95.7367 15.0977 93.202 12.5597 90.0771 12.5597V12.5547Z" />
        <path d="M167.573 11.8654H160.509C160.529 9.9829 162.057 8.46303 163.942 8.46303L170.628 8.4829V5.07065L163.059 5.05078C159.383 5.05078 156.402 8.03588 156.402 11.7163V16.9216C156.402 20.5028 159.304 23.4084 162.88 23.4084H166.149C169.725 23.4084 172.627 20.5028 172.627 16.9216C172.627 14.1253 170.365 11.8604 167.573 11.8604V11.8654ZM165.549 19.9514H163.485C161.844 19.9564 160.509 18.6302 160.504 16.9862V14.9051H166.466C167.602 14.9051 168.525 15.8289 168.52 16.9713C168.52 18.6154 167.196 19.9514 165.554 19.9564L165.549 19.9514Z" />
        <path d="M191.654 16.4133V16.9199C191.654 20.506 188.753 23.4116 185.176 23.4116H181.908C178.326 23.4116 175.43 20.506 175.43 16.9199V15.0027H179.507V16.9845C179.507 18.6285 180.841 19.9597 182.488 19.9547H184.522C186.168 19.9448 187.508 18.6186 187.518 16.9646C187.518 16.7312 187.518 16.4431 187.518 16.1302C187.518 14.9481 186.759 13.9398 185.702 13.5772C185.429 13.4779 185.132 13.4282 184.824 13.4282H181.873V10.2395H184.115C186.01 10.2395 187.547 8.70469 187.547 6.80734V5.06396H191.332V6.98615C191.332 8.8537 190.563 10.5424 189.328 11.7544C190.747 12.8123 191.659 14.506 191.659 16.4083L191.654 16.4133Z" />
        <path d="M69.785 5.05078H67.1214C63.4459 5.05078 60.4648 8.03588 60.4648 11.7163V12.0591H64.5718V11.8952C64.5718 9.9978 66.1095 8.45807 68.0043 8.45807H68.8971C70.7919 8.45807 72.3295 9.9978 72.3295 11.8952V16.5293C72.3295 18.4266 70.7919 19.9663 68.8971 19.9663H68.0043C66.1095 19.9663 64.5718 18.4266 64.5718 16.5293V16.2859H60.4648V16.7081C60.4648 20.3885 63.4459 23.3736 67.1214 23.3736H69.785C73.4604 23.3736 76.4415 20.3885 76.4415 16.7081V11.7163C76.4415 8.03588 73.4604 5.05078 69.785 5.05078Z" />
        <path d="M122.811 6.46025V5.02979H119.746V9.31621H122.33C123.67 9.31621 124.215 9.71853 124.215 10.6622C124.215 11.6059 124.27 12.8328 124.27 13.2251L125.103 14.005H128.481V10.6026C128.481 9.21687 128.094 6.46522 123.298 6.46522C123.203 6.46522 122.906 6.46522 122.811 6.46522V6.46025Z" />
        <path d="M128.284 11.7349H123.711C120.492 11.7349 117.883 14.3478 117.883 17.571V17.5759C117.883 20.7991 120.492 23.412 123.711 23.412H128.284C131.503 23.412 134.112 20.7991 134.112 17.5759V17.571C134.112 14.3478 131.503 11.7349 128.284 11.7349Z" />
        <path d="M127.489 14.9995H124.498C123.112 14.9995 121.988 16.1236 121.988 17.5103C121.988 18.8969 123.112 20.021 124.498 20.021H127.489C128.875 20.021 129.999 18.8969 129.999 17.5103C129.999 16.1236 128.875 14.9995 127.489 14.9995Z" fill="white"/>
        <path d="M0.674954 1.70358C0.674954 1.70358 1.73643 10.9966 7.2174 16.1274C13.487 22.0033 20.8876 16.6489 24.1662 11.9552C25.4608 10.1026 26.8497 7.64398 26.8894 5.8708C26.9241 4.2516 25.6989 3.05458 23.5016 3.03471C21.3191 3.01484 19.097 3.75987 19.097 3.75987C19.097 3.75987 20.8281 1.30623 24.3944 0.635701C26.9638 0.148946 28.8933 1.00325 30.168 2.69199C31.9636 5.06616 31.5222 9.5165 29.171 14.6175C26.2892 20.8708 17.723 30.5811 8.77985 26.5529C0.183899 22.6787 -1.0611 9.12908 0.674954 1.70358Z" />
        <path class="leaf" d="M19.0956 11.7705C18.3367 11.8947 17.553 11.9543 16.7593 11.9543C10.0383 11.9593 4.36887 7.42948 2.63281 1.25067C3.39172 1.1265 4.17542 1.06689 4.96905 1.06689C11.695 1.06689 17.3645 5.5967 19.0956 11.7705Z" />
    </g>
</svg>
